<svg xmlns="http://www.w3.org/2000/svg" width="20" height="20" viewBox="0 0 20 20" fill="none">
    <path d="M16.0346 4.64997H15.7013L12.8846 1.8333C12.6596 1.6083 12.293 1.6083 12.0596 1.8333C11.8346 2.0583 11.8346 2.42497 12.0596 2.6583L14.0513 4.64997H5.9513L7.94297 2.6583C8.16797 2.4333 8.16797 2.06663 7.94297 1.8333C7.71797 1.6083 7.3513 1.6083 7.11797 1.8333L4.30964 4.64997H3.9763C3.2263 4.64997 1.66797 4.64997 1.66797 6.7833C1.66797 7.59163 1.83464 8.12497 2.18464 8.47497C2.38464 8.6833 2.6263 8.79163 2.88464 8.84997C3.1263 8.9083 3.38464 8.91663 3.63464 8.91663H16.368C16.6263 8.91663 16.868 8.89997 17.1013 8.84997C17.8013 8.6833 18.3346 8.1833 18.3346 6.7833C18.3346 4.64997 16.7763 4.64997 16.0346 4.64997Z" fill="#0D0D12"/>
    <path d="M15.8755 10H4.05887C3.5422 10 3.15054 10.4583 3.23387 10.9667L3.93387 15.25C4.1672 16.6833 4.7922 18.3333 7.5672 18.3333H12.2422C15.0505 18.3333 15.5505 16.925 15.8505 15.35L16.6922 10.9917C16.7922 10.475 16.4005 10 15.8755 10ZM10.0005 16.25C8.05054 16.25 6.45887 14.6583 6.45887 12.7083C6.45887 12.3667 6.7422 12.0833 7.08387 12.0833C7.42554 12.0833 7.70887 12.3667 7.70887 12.7083C7.70887 13.975 8.73387 15 10.0005 15C11.2672 15 12.2922 13.975 12.2922 12.7083C12.2922 12.3667 12.5755 12.0833 12.9172 12.0833C13.2589 12.0833 13.5422 12.3667 13.5422 12.7083C13.5422 14.6583 11.9505 16.25 10.0005 16.25Z" fill="#0D0D12"/>
  </svg>