<svg xmlns="http://www.w3.org/2000/svg" width="20" height="20" viewBox="0 0 20 20" fill="none">
    <path d="M7.08203 11.875C7.08203 13.475 8.3987 14.7917 9.9987 14.7917C11.5987 14.7917 12.9154 13.475 12.9154 11.875" stroke="#666D80" stroke-width="1.5" stroke-miterlimit="10" stroke-linecap="round" stroke-linejoin="round"/>
    <path d="M7.34089 1.6665L4.32422 4.6915" stroke="#666D80" stroke-width="1.5" stroke-miterlimit="10" stroke-linecap="round" stroke-linejoin="round"/>
    <path d="M12.6602 1.6665L15.6768 4.6915" stroke="#666D80" stroke-width="1.5" stroke-miterlimit="10" stroke-linecap="round" stroke-linejoin="round"/>
    <path d="M1.66797 6.54167C1.66797 5 2.49297 4.875 3.51797 4.875H16.4846C17.5096 4.875 18.3346 5 18.3346 6.54167C18.3346 8.33333 17.5096 8.20833 16.4846 8.20833H3.51797C2.49297 8.20833 1.66797 8.33333 1.66797 6.54167Z" stroke="#666D80" stroke-width="1.5"/>
    <path d="M2.91797 8.3335L4.09297 15.5335C4.35964 17.1502 5.0013 18.3335 7.38464 18.3335H12.4096C15.0013 18.3335 15.3846 17.2002 15.6846 15.6335L17.0846 8.3335" stroke="#666D80" stroke-width="1.5" stroke-linecap="round"/>
  </svg>