<svg xmlns="http://www.w3.org/2000/svg" width="20" height="20" viewBox="0 0 20 20" fill="none">
    <path d="M17.5739 5.81664C16.8656 5.03331 15.6822 4.64164 13.9656 4.64164H13.7656V4.60831C13.7656 3.20831 13.7656 1.47498 10.6322 1.47498H9.36556C6.23222 1.47498 6.23222 3.21664 6.23222 4.60831V4.64998H6.03222C4.30722 4.64998 3.13223 5.04164 2.42389 5.82498C1.59889 6.74164 1.62389 7.97498 1.70723 8.81664L1.71556 8.87497L1.77635 9.51326C1.79061 9.66303 1.87136 9.79841 1.99736 9.88063C2.19941 10.0125 2.50915 10.2112 2.69889 10.3166C2.81556 10.3916 2.94056 10.4583 3.06556 10.525C4.49056 11.3083 6.05723 11.8333 7.64889 12.0916C7.72389 12.875 8.06556 13.7916 9.89056 13.7916C11.7156 13.7916 12.0739 12.8833 12.1322 12.075C13.8322 11.8 15.4739 11.2083 16.9572 10.3416C17.0072 10.3166 17.0406 10.2916 17.0822 10.2666C17.4024 10.0857 17.7343 9.86397 18.0389 9.6453C18.1521 9.56403 18.2243 9.43789 18.2397 9.29938L18.2489 9.21664L18.2906 8.82498C18.2989 8.77498 18.2989 8.73331 18.3072 8.67497C18.3739 7.83331 18.3572 6.68331 17.5739 5.81664ZM10.9072 11.525C10.9072 12.4083 10.9072 12.5416 9.88222 12.5416C8.85722 12.5416 8.85722 12.3833 8.85722 11.5333V10.4833H10.9072V11.525ZM7.42389 4.64164V4.60831C7.42389 3.19164 7.42389 2.66664 9.36556 2.66664H10.6322C12.5739 2.66664 12.5739 3.19998 12.5739 4.60831V4.64998H7.42389V4.64164Z" fill="#0D0D12"/>
    <path d="M17.2589 11.5091C17.613 11.3418 18.0202 11.6223 17.9848 12.0123L17.6992 15.1583C17.5242 16.825 16.8409 18.525 13.1742 18.525H6.82422C3.15755 18.525 2.47422 16.825 2.29922 15.1667L2.02851 12.1888C1.99347 11.8034 2.39179 11.5233 2.74482 11.682C3.70402 12.1131 5.31603 12.8064 6.35201 13.0854C6.51602 13.1296 6.64917 13.2476 6.72357 13.4003C7.23777 14.4556 8.32696 15.0167 9.89089 15.0167C11.4394 15.0167 12.5419 14.434 13.058 13.3755C13.1326 13.2227 13.2656 13.1048 13.4297 13.0604C14.5315 12.7619 16.2528 11.9846 17.2589 11.5091Z" fill="#0D0D12"/>
  </svg>