<svg xmlns="http://www.w3.org/2000/svg" width="18" height="18" viewBox="0 0 18 18" fill="none">
    <path d="M1.5 9.45752H14.25" stroke="#666D80" stroke-width="1.5" stroke-miterlimit="10" stroke-linecap="round" stroke-linejoin="round"/>
    <path d="M14.25 7.7101V13.0726C14.2275 15.2101 13.6425 15.7501 11.415 15.7501H4.33502C2.07002 15.7501 1.5 15.1876 1.5 12.9526V7.7101C1.5 5.6851 1.9725 5.0326 3.75 4.9276C3.93 4.9201 4.12502 4.9126 4.33502 4.9126H11.415C13.68 4.9126 14.25 5.4751 14.25 7.7101Z" stroke="#666D80" stroke-width="1.5" stroke-linecap="round" stroke-linejoin="round"/>
    <path d="M16.5 5.0475V10.29C16.5 12.315 16.0275 12.9675 14.25 13.0725V7.71C14.25 5.475 13.68 4.9125 11.415 4.9125H4.33502C4.12502 4.9125 3.93 4.92 3.75 4.9275C3.7725 2.79 4.35752 2.25 6.58502 2.25H13.665C15.93 2.25 16.5 2.8125 16.5 5.0475Z" stroke="#666D80" stroke-width="1.5" stroke-linecap="round" stroke-linejoin="round"/>
    <path d="M3.9375 13.3574H5.22748" stroke="#666D80" stroke-width="1.5" stroke-miterlimit="10" stroke-linecap="round" stroke-linejoin="round"/>
    <path d="M6.83203 13.3574H9.41203" stroke="#666D80" stroke-width="1.5" stroke-miterlimit="10" stroke-linecap="round" stroke-linejoin="round"/>
  </svg>