<svg xmlns="http://www.w3.org/2000/svg" width="20" height="20" viewBox="0 0 20 20" fill="none">
    <path d="M17.5 18.9583H2.5C2.15833 18.9583 1.875 18.6749 1.875 18.3333C1.875 17.9916 2.15833 17.7083 2.5 17.7083H17.5C17.8417 17.7083 18.125 17.9916 18.125 18.3333C18.125 18.6749 17.8417 18.9583 17.5 18.9583Z" fill="#0D0D12"/>
    <path d="M4.66667 6.9834H3.33333C2.875 6.9834 2.5 7.3584 2.5 7.81673V15.0001C2.5 15.4584 2.875 15.8334 3.33333 15.8334H4.66667C5.125 15.8334 5.5 15.4584 5.5 15.0001V7.81673C5.5 7.35007 5.125 6.9834 4.66667 6.9834Z" fill="#0D0D12"/>
    <path d="M10.6667 4.32495H9.33333C8.875 4.32495 8.5 4.69995 8.5 5.15828V15C8.5 15.4583 8.875 15.8333 9.33333 15.8333H10.6667C11.125 15.8333 11.5 15.4583 11.5 15V5.15828C11.5 4.69995 11.125 4.32495 10.6667 4.32495Z" fill="#0D0D12"/>
    <path d="M16.6667 1.66675H15.3333C14.875 1.66675 14.5 2.04175 14.5 2.50008V15.0001C14.5 15.4584 14.875 15.8334 15.3333 15.8334H16.6667C17.125 15.8334 17.5 15.4584 17.5 15.0001V2.50008C17.5 2.04175 17.125 1.66675 16.6667 1.66675Z" fill="#0D0D12"/>
  </svg>