<svg width="34" height="35" viewBox="0 0 34 35" fill="none" xmlns="http://www.w3.org/2000/svg">
<rect x="1" y="1.5" width="32" height="32" rx="16" fill="#ECEFF3"/>
<g clip-path="url(#clip0_92_6890)">
<path d="M20.3326 20.8332L16.9992 17.4999M16.9992 17.4999L13.6659 20.8332M16.9992 17.4999V24.9999M23.9909 22.8249C24.8037 22.3818 25.4458 21.6806 25.8158 20.8321C26.1858 19.9835 26.2627 19.0359 26.0344 18.1388C25.8061 17.2417 25.2855 16.4462 24.5548 15.8778C23.8241 15.3094 22.925 15.0005 21.9992 14.9999H20.9492C20.697 14.0243 20.2269 13.1185 19.5742 12.3507C18.9215 11.5829 18.1033 10.9731 17.181 10.5671C16.2587 10.161 15.2564 9.96937 14.2493 10.0065C13.2423 10.0436 12.2568 10.3085 11.3669 10.7813C10.477 11.2541 9.70583 11.9225 9.11142 12.7362C8.51701 13.55 8.11481 14.4879 7.93505 15.4794C7.75529 16.4709 7.80266 17.4903 8.07358 18.461C8.3445 19.4316 8.83194 20.3281 9.49923 21.0832" stroke="#0D0D12" stroke-width="1.66667" stroke-linecap="round" stroke-linejoin="round"/>
</g>
<rect x="1" y="1.5" width="32" height="32" rx="16" stroke="#F6F8FA" stroke-width="2"/>
<defs>
<clipPath id="clip0_92_6890">
<rect width="20" height="20" fill="white" transform="translate(7 7.5)"/>
</clipPath>
</defs>
</svg>
