<svg xmlns="http://www.w3.org/2000/svg" width="20" height="20" viewBox="0 0 20 20" fill="none">
    <path d="M10.0013 18.3332C14.6037 18.3332 18.3346 14.6022 18.3346 9.99984C18.3346 5.39746 14.6037 1.6665 10.0013 1.6665C5.39893 1.6665 1.66797 5.39746 1.66797 9.99984C1.66797 14.6022 5.39893 18.3332 10.0013 18.3332Z" stroke="#666D80" stroke-width="1.5" stroke-miterlimit="10" stroke-linecap="round" stroke-linejoin="round"/>
    <path d="M9.99999 12.4001C9.24166 12.4001 8.625 11.7835 8.625 11.0251V8.96682C8.625 8.20848 9.24166 7.5918 9.99999 7.5918C10.7583 7.5918 11.375 8.20848 11.375 8.96682V11.0251C11.375 11.7835 10.7583 12.4001 9.99999 12.4001Z" stroke="#666D80" stroke-width="1.5" stroke-linecap="round"/>
    <path d="M14.1487 11.2252C13.982 13.3752 12.182 15.0586 9.9987 15.0586C7.6987 15.0586 5.83203 13.1919 5.83203 10.8919V9.10856C5.83203 6.80856 7.6987 4.94189 9.9987 4.94189C12.157 4.94189 13.932 6.58355 14.1404 8.68355" stroke="#666D80" stroke-width="1.5" stroke-linecap="round"/>
  </svg>