<svg xmlns="http://www.w3.org/2000/svg" width="20" height="20" viewBox="0 0 20 20" fill="none">
    <path d="M18.3318 10.7166C18.3318 12.6249 17.3484 14.3166 15.8318 15.3833L14.7151 17.8416C14.4568 18.3999 13.7068 18.5083 13.3151 18.0333L12.0818 16.5499C10.5318 16.5499 9.10677 16.0249 8.02344 15.1499L8.52344 14.5583C12.3734 14.2666 15.4151 11.2166 15.4151 7.49994C15.4151 6.8666 15.3234 6.2416 15.1568 5.6416C17.0484 6.6416 18.3318 8.5416 18.3318 10.7166Z" fill="#292D32"/>
    <path d="M13.5846 5.05817C12.6096 3.05817 10.4346 1.6665 7.91797 1.6665C4.46797 1.6665 1.66797 4.27484 1.66797 7.49984C1.66797 9.40817 2.6513 11.0998 4.16797 12.1665L5.28464 14.6248C5.54297 15.1832 6.29297 15.2832 6.68464 14.8165L7.14297 14.2665L7.91797 13.3332C11.368 13.3332 14.168 10.7248 14.168 7.49984C14.168 6.62484 13.9596 5.79984 13.5846 5.05817ZM10.0013 8.12484H5.83464C5.49297 8.12484 5.20964 7.8415 5.20964 7.49984C5.20964 7.15817 5.49297 6.87484 5.83464 6.87484H10.0013C10.343 6.87484 10.6263 7.15817 10.6263 7.49984C10.6263 7.8415 10.343 8.12484 10.0013 8.12484Z" fill="#292D32"/>
  </svg>