<svg xmlns="http://www.w3.org/2000/svg" width="20" height="20" viewBox="0 0 20 20" fill="none">
    <path d="M14.168 7.49984C14.168 10.7248 11.368 13.3332 7.91797 13.3332L7.14297 14.2665L6.68464 14.8165C6.29297 15.2832 5.54297 15.1832 5.28463 14.6248L4.16797 12.1665C2.6513 11.0998 1.66797 9.40817 1.66797 7.49984C1.66797 4.27484 4.46797 1.6665 7.91797 1.6665C10.4346 1.6665 12.6096 3.05818 13.5846 5.05818C13.9596 5.79984 14.168 6.62484 14.168 7.49984Z" stroke="#666D80" stroke-width="1.5" stroke-linecap="round" stroke-linejoin="round"/>
    <path d="M18.3323 10.7164C18.3323 12.6248 17.349 14.3165 15.8323 15.3831L14.7156 17.8414C14.4573 18.3997 13.7073 18.5081 13.3156 18.0331L12.0823 16.5498C10.0656 16.5498 8.26563 15.6581 7.14062 14.2664L7.91562 13.3331C11.3656 13.3331 14.1656 10.7248 14.1656 7.49977C14.1656 6.62477 13.9573 5.79977 13.5823 5.05811C16.3073 5.68311 18.3323 7.98309 18.3323 10.7164Z" stroke="#666D80" stroke-width="1.5" stroke-linecap="round" stroke-linejoin="round"/>
    <path d="M5.83203 7.5H9.9987" stroke="#666D80" stroke-width="1.5" stroke-linecap="round" stroke-linejoin="round"/>
  </svg>