<svg xmlns="http://www.w3.org/2000/svg" width="20" height="20" viewBox="0 0 20 20" fill="none">
    <path d="M8.73984 1.8583L4.58151 3.42497C3.62318 3.7833 2.83984 4.91663 2.83984 5.9333V12.125C2.83984 13.1083 3.48984 14.4 4.28151 14.9916L7.86484 17.6666C9.03984 18.55 10.9732 18.55 12.1482 17.6666L15.7315 14.9916C16.5232 14.4 17.1732 13.1083 17.1732 12.125V5.9333C17.1732 4.9083 16.3898 3.77497 15.4315 3.41663L11.2732 1.8583C10.5648 1.59997 9.43151 1.59997 8.73984 1.8583Z" stroke="#666D80" stroke-width="1.5" stroke-linecap="round" stroke-linejoin="round"/>
    <path d="M9.9987 10.4168C10.9192 10.4168 11.6654 9.67064 11.6654 8.75016C11.6654 7.82969 10.9192 7.0835 9.9987 7.0835C9.07822 7.0835 8.33203 7.82969 8.33203 8.75016C8.33203 9.67064 9.07822 10.4168 9.9987 10.4168Z" stroke="#666D80" stroke-width="1.5" stroke-miterlimit="10" stroke-linecap="round" stroke-linejoin="round"/>
    <path d="M10 10.4165V12.9165" stroke="#666D80" stroke-width="1.5" stroke-miterlimit="10" stroke-linecap="round" stroke-linejoin="round"/>
  </svg>