<svg xmlns="http://www.w3.org/2000/svg" width="20" height="20" viewBox="0 0 20 20" fill="none">
    <path d="M10.0013 1.6665C5.40964 1.6665 1.66797 5.40817 1.66797 9.99984C1.66797 14.5915 5.40964 18.3332 10.0013 18.3332C14.593 18.3332 18.3346 14.5915 18.3346 9.99984C18.3346 5.40817 14.593 1.6665 10.0013 1.6665ZM13.9846 8.08317L9.25963 12.8082C9.14297 12.9248 8.98464 12.9915 8.81797 12.9915C8.6513 12.9915 8.49297 12.9248 8.3763 12.8082L6.01797 10.4498C5.7763 10.2082 5.7763 9.80817 6.01797 9.5665C6.25963 9.32484 6.65964 9.32484 6.9013 9.5665L8.81797 11.4832L13.1013 7.19984C13.343 6.95817 13.743 6.95817 13.9846 7.19984C14.2263 7.4415 14.2263 7.83317 13.9846 8.08317Z" fill="#039855"/>
  </svg>