<svg xmlns="http://www.w3.org/2000/svg" width="20" height="20" viewBox="0 0 20 20" fill="none">
    <path d="M12.3737 3.29159V6.45825H11.1237V3.29159C11.1237 3.06659 10.9237 2.95825 10.7904 2.95825C10.7487 2.95825 10.707 2.96659 10.6654 2.98325L4.05703 5.47492C3.61536 5.64159 3.33203 6.05825 3.33203 6.53325V7.09159C2.5737 7.65825 2.08203 8.56659 2.08203 9.59159V6.53325C2.08203 5.54159 2.69036 4.65825 3.61536 4.30825L10.232 1.80825C10.4154 1.74159 10.607 1.70825 10.7904 1.70825C11.6237 1.70825 12.3737 2.38325 12.3737 3.29159Z" fill="#0D0D12"/>
    <path d="M17.9179 12.0834V12.9167C17.9179 13.1417 17.7429 13.3251 17.5095 13.3334H16.2929C15.8512 13.3334 15.4512 13.0084 15.4179 12.5751C15.3929 12.3167 15.4929 12.0751 15.6595 11.9084C15.8095 11.7501 16.0179 11.6667 16.2429 11.6667H17.5012C17.7429 11.6751 17.9179 11.8584 17.9179 12.0834Z" fill="#0D0D12"/>
    <path d="M16.232 10.7916H17.082C17.5404 10.7916 17.9154 10.4166 17.9154 9.95825V9.59159C17.9154 7.86659 16.507 6.45825 14.782 6.45825H5.21536C4.50703 6.45825 3.85703 6.69159 3.33203 7.09159C2.5737 7.65825 2.08203 8.56659 2.08203 9.59159V15.1999C2.08203 16.9249 3.49036 18.3333 5.21536 18.3333H14.782C16.507 18.3333 17.9154 16.9249 17.9154 15.1999V15.0416C17.9154 14.5833 17.5404 14.2083 17.082 14.2083H16.357C15.557 14.2083 14.7904 13.7166 14.582 12.9416C14.407 12.3083 14.6154 11.6999 15.032 11.2916C15.3404 10.9749 15.7654 10.7916 16.232 10.7916ZM11.6654 10.6249H5.83203C5.49036 10.6249 5.20703 10.3416 5.20703 9.99992C5.20703 9.65825 5.49036 9.37492 5.83203 9.37492H11.6654C12.007 9.37492 12.2904 9.65825 12.2904 9.99992C12.2904 10.3416 12.007 10.6249 11.6654 10.6249Z" fill="#0D0D12"/>
  </svg>