<svg width="107" height="108" viewBox="0 0 107 108" fill="none" xmlns="http://www.w3.org/2000/svg">
<g id="Arrow_05" clip-path="url(#clip0_205_5137)">
<g id="Group">
<path id="Vector" fill-rule="evenodd" clip-rule="evenodd" d="M60.2074 63.6781C61.3215 65.504 63.0474 66.8561 65.5142 67.457C73.1452 69.3157 78.7375 65.7284 82.5928 59.8743C88.2218 51.3261 90.0853 37.8827 89.2559 30.1878C89.2171 29.8233 88.8894 29.5607 88.5264 29.6004C88.1619 29.6392 87.8979 29.9661 87.9367 30.3306C88.7421 37.7991 86.9473 50.8491 81.4848 59.1456C77.9447 64.5208 72.8365 67.8755 65.8278 66.1674C63.7415 65.6605 62.2889 64.5146 61.3429 62.9732C62.3407 62.3395 63.3075 61.686 64.2409 61.0132C66.817 59.1553 72.5244 53.1627 74.8527 47.6773C76.5218 43.742 76.4549 40.0721 72.8167 38.0991C70.7943 37.003 68.6373 37.4119 66.6163 38.8772C63.8367 40.8901 61.3004 44.9683 59.8546 49.4442C58.6501 53.1704 58.1997 57.1639 58.9378 60.4444C59.1015 61.165 59.3189 61.853 59.5982 62.4973C45.5927 71.0234 26.2116 75.3675 10.3795 72.7781C10.0185 72.7204 9.67705 72.9638 9.61855 73.3262C9.55861 73.6878 9.80434 74.0287 10.1645 74.0878C26.2551 76.7182 45.9442 72.3259 60.2074 63.6781ZM60.7425 61.7839C61.6789 61.1863 62.5871 60.5705 63.4649 59.9371C65.933 58.156 71.4004 52.4151 73.6309 47.1593C75.0002 43.9341 75.1661 40.8818 72.1844 39.2646C70.618 38.4163 68.9601 38.8177 67.394 39.9504C65.6725 41.1982 64.0708 43.3095 62.7895 45.8067C60.8441 49.598 59.6422 54.2804 59.9541 58.2657C60.0523 59.5283 60.3055 60.72 60.7425 61.7839Z" fill="#0D0D12"/>
<path id="Vector_2" fill-rule="evenodd" clip-rule="evenodd" d="M31.4998 59.9052C26.4436 65.9916 17.8764 70.6346 10.2427 72.8675C9.89165 72.9702 9.69028 73.339 9.79293 73.6901C9.89558 74.0412 10.2636 74.2439 10.6147 74.1413C18.4872 71.8395 27.3067 67.0272 32.5196 60.753C32.7532 60.4723 32.7145 60.0538 32.4324 59.8194C32.1517 59.5859 31.7333 59.6245 31.4998 59.9052Z" fill="#0D0D12"/>
<path id="Vector_3" fill-rule="evenodd" clip-rule="evenodd" d="M10.6191 74.3051C17.2067 74.3361 25.0318 78.3322 29.7439 82.9639C30.0051 83.2211 30.4259 83.2186 30.6816 82.9565C30.9387 82.6952 30.9354 82.2759 30.6741 82.0188C25.7377 77.1666 17.5269 73.0117 10.6253 72.9791C10.2595 72.9766 9.96045 73.2736 9.95799 73.6393C9.95698 74.0059 10.2525 74.3041 10.6191 74.3051Z" fill="#0D0D12"/>
</g>
</g>
<defs>
<clipPath id="clip0_205_5137">
<rect width="78" height="78" fill="white" transform="translate(67.5508 107.275) rotate(-150)"/>
</clipPath>
</defs>
</svg>
