<svg width="65" height="62" viewBox="0 0 65 62" fill="none" xmlns="http://www.w3.org/2000/svg">
<g id="Highlight_05">
<path id="Vector" fill-rule="evenodd" clip-rule="evenodd" d="M11.956 16.9632C14.4465 12.7647 16.3627 8.18384 18.187 3.7308C18.5765 2.77078 18.1348 1.6642 17.1834 1.33325C16.2503 0.931168 15.172 1.40297 14.8015 2.29206C13.0372 6.60912 11.1954 11.057 8.8095 15.0554C8.2964 15.9063 8.57781 17.0465 9.4438 17.5827C10.3091 18.1187 11.4422 17.8139 11.956 16.9632Z" fill="#0D0D12"/>
<path id="Vector_2" fill-rule="evenodd" clip-rule="evenodd" d="M26.3317 35.564C35.7455 30.2555 44.4465 23.7676 54.0223 18.6546C54.9084 18.2078 55.2508 17.0831 54.7734 16.1949C54.2953 15.3065 53.1906 14.9347 52.2855 15.4525C42.6877 20.5596 33.9653 27.0418 24.5296 32.3444C23.6415 32.8667 23.3276 33.9988 23.8242 34.8921C24.339 35.7143 25.4436 36.0863 26.3317 35.564Z" fill="#0D0D12"/>
<path id="Vector_3" fill-rule="evenodd" clip-rule="evenodd" d="M51.34 56.9391C47.0156 56.0084 42.6912 55.0773 38.366 54.1465C37.3885 53.8846 36.4055 54.534 36.187 55.5398C35.9691 56.5458 36.6112 57.4777 37.5894 57.7398C41.921 58.6724 46.2518 59.6052 50.5826 60.5375C51.5791 60.7285 52.557 60.078 52.7699 59.0707C52.9638 58.1343 52.3358 57.1298 51.34 56.9391Z" fill="#0D0D12"/>
</g>
</svg>
