<svg width="77" height="46" viewBox="0 0 77 46" fill="none" xmlns="http://www.w3.org/2000/svg">
<path fill-rule="evenodd" clip-rule="evenodd" d="M55.517 43.7617C62.3917 43.9282 69.4172 43.5953 75.9906 45.9562C76.3825 46.0954 76.8134 45.8926 76.9551 45.4991C77.0937 45.1056 76.8918 44.6728 76.5 44.5306C69.7729 42.1152 62.5876 42.4179 55.5531 42.2484C55.1372 42.2363 54.7906 42.5692 54.7816 42.9869C54.7695 43.4046 55.101 43.7496 55.517 43.7617Z" fill="#0D0D12"/>
<path fill-rule="evenodd" clip-rule="evenodd" d="M54.9003 33.7378C57.0432 31.7577 59.382 30.2743 62.2091 29.5391C62.6129 29.4344 62.854 29.0212 62.7515 28.6168C62.6461 28.2124 62.2332 27.9694 61.8323 28.0741C58.7581 28.8732 56.2113 30.4719 53.8815 32.6237C53.5741 32.9064 53.553 33.3855 53.8363 33.693C54.1166 34.0002 54.5959 34.0205 54.9003 33.7378Z" fill="#0D0D12"/>
<path fill-rule="evenodd" clip-rule="evenodd" d="M48.9382 12.1197C49.9208 8.73731 51.8557 6.09132 54.8214 4.18053C55.171 3.95503 55.2735 3.4865 55.0475 3.13509C54.8244 2.78368 54.3573 2.68137 54.0076 2.90686C50.7255 5.02257 48.5795 7.95066 47.4915 11.6957C47.374 12.0964 47.6061 12.5171 48.0039 12.634C48.4048 12.7511 48.8237 12.5205 48.9382 12.1197Z" fill="#0D0D12"/>
<path fill-rule="evenodd" clip-rule="evenodd" d="M15.0772 7.52955C14.4925 8.22056 13.9681 8.96514 13.522 9.75785C13.3231 10.1108 12.9735 10.8608 12.9192 11.504C12.8589 12.1892 13.091 12.7674 13.6877 13.0719C14.4804 13.4756 15.1134 13.4336 15.6016 13.1893C16.0718 12.9547 16.4395 12.4937 16.6715 11.8757C17.1146 10.6943 17.0483 8.88888 16.8162 7.85857C17.4401 7.21205 18.1243 6.62575 18.8566 6.10455C24.3119 2.22272 32.3139 3.65408 38.4714 9.4582C40.6263 11.4904 41.6631 15.7581 42.2026 20.3627C43.0435 27.5322 42.5643 35.5398 42.498 37.8859C42.4829 38.4652 42.5372 38.809 42.5673 38.8777C42.709 39.2155 42.9591 39.3033 43.1339 39.3366C43.3871 39.382 43.589 39.3336 43.7518 39.2488C43.9718 39.1326 44.1526 38.928 44.237 38.6123C44.2822 38.4379 44.2943 38.1952 44.2882 37.9364C44.2822 37.7569 44.246 37.5608 44.2822 37.4321C44.5173 36.6083 44.8006 35.8037 45.0779 34.9935C46.0032 32.2697 47.1997 29.7172 48.5289 27.1678C52.7514 19.067 56.8353 10.5076 63.7583 4.33571C64.0687 4.05876 64.0989 3.57993 63.8216 3.26756C63.5473 2.9552 63.0711 2.92674 62.7577 3.204C55.696 9.49785 51.5006 18.2046 47.1937 26.4659C46.0635 28.6346 45.0266 30.8063 44.1647 33.0779C44.2521 29.0595 44.2189 23.4972 43.4865 18.5757C42.8355 14.1987 41.5968 10.3305 39.5021 8.35494C32.7569 1.99662 23.9592 0.617333 17.9856 4.86993C17.3467 5.32516 16.7379 5.82579 16.1713 6.3688C13.0458 0.701182 6.35484 -1.57042 0.441492 1.14035C0.0617363 1.31378 -0.104027 1.76296 0.0677671 2.14282C0.242575 2.52268 0.688622 2.69037 1.06838 2.51693C6.39702 0.0743361 12.44 2.2542 15.0772 7.52955ZM15.5142 9.42702C15.2701 9.77328 15.044 10.1323 14.833 10.5033C14.7215 10.7025 14.5286 11.0854 14.4473 11.4601C14.4292 11.5479 14.4262 11.6853 14.4262 11.7489C14.6341 11.8518 14.7969 11.9014 14.9295 11.8345C15.0952 11.7522 15.1797 11.5585 15.261 11.3421C15.466 10.7991 15.5323 10.0793 15.5142 9.42702Z" fill="#0D0D12"/>
</svg>
