<svg width="214" height="174" viewBox="0 0 214 174" fill="none" xmlns="http://www.w3.org/2000/svg">
<g opacity="0.24">
<line y1="-0.5" x2="7.79843" y2="-0.5" transform="matrix(-0.817665 -0.575694 0.571453 -0.820635 15.9062 5.01978)" stroke="#F6F8FA"/>
<line y1="-0.5" x2="7.80512" y2="-0.5" transform="matrix(-0.705497 -0.708713 0.705493 -0.708717 32.0625 0.943604)" stroke="#F6F8FA"/>
<line y1="-0.5" x2="7.80512" y2="-0.5" transform="matrix(-0.705497 -0.708713 0.705493 -0.708717 18.7031 18.6821)" stroke="#F6F8FA"/>
<line y1="-0.5" x2="7.81056" y2="-0.5" transform="matrix(-0.572194 -0.820118 0.81818 -0.574962 34.7734 14.6292)" stroke="#F6F8FA"/>
<line y1="-0.5" x2="7.81411" y2="-0.5" transform="matrix(-0.421805 -0.906686 0.905926 -0.423435 50.7852 10.5916)" stroke="#F6F8FA"/>
<line x1="66.2202" y1="6.45558" x2="64.1974" y2="-1.09346" stroke="#F6F8FA"/>
<line y1="-0.5" x2="7.81411" y2="-0.5" transform="matrix(-0.0880498 -0.996116 0.996273 -0.0862572 82.6211 2.06104)" stroke="#F6F8FA"/>
<line y1="-0.5" x2="7.81056" y2="-0.5" transform="matrix(0.0854759 -0.99634 0.996046 0.0888421 85.1523 15.2898)" stroke="#F6F8FA"/>
<line y1="-0.5" x2="7.80512" y2="-0.5" transform="matrix(0.256623 -0.966512 0.965333 0.26102 101.094 10.7656)" stroke="#F6F8FA"/>
<line y1="-0.5" x2="7.79843" y2="-0.5" transform="matrix(0.420272 -0.907398 0.90521 0.424964 117.121 6.21753)" stroke="#F6F8FA"/>
<line y1="-0.5" x2="7.79132" y2="-0.5" transform="matrix(0.571453 -0.820635 0.817665 0.575694 133.199 1.4043)" stroke="#F6F8FA"/>
<line y1="-0.5" x2="7.81056" y2="-0.5" transform="matrix(-0.572194 -0.820118 0.81818 -0.574962 21.418 32.3674)" stroke="#F6F8FA"/>
<line y1="-0.5" x2="7.81411" y2="-0.5" transform="matrix(-0.421805 -0.906686 0.905926 -0.423435 37.4297 28.3301)" stroke="#F6F8FA"/>
<line x1="52.8647" y1="24.1944" x2="50.8419" y2="16.6453" stroke="#F6F8FA"/>
<line y1="-0.5" x2="7.81411" y2="-0.5" transform="matrix(-0.0880492 -0.996116 0.996273 -0.0862577 69.2656 19.7993)" stroke="#F6F8FA"/>
<line y1="-0.5" x2="7.81056" y2="-0.5" transform="matrix(0.0854759 -0.99634 0.996046 0.0888421 71.793 33.0283)" stroke="#F6F8FA"/>
<line y1="-0.5" x2="7.80511" y2="-0.5" transform="matrix(0.256622 -0.966512 0.965333 0.261021 87.7383 28.5032)" stroke="#F6F8FA"/>
<line y1="-0.5" x2="7.79843" y2="-0.5" transform="matrix(0.420272 -0.907398 0.90521 0.424964 103.77 23.9558)" stroke="#F6F8FA"/>
<line y1="-0.5" x2="7.79132" y2="-0.5" transform="matrix(0.571453 -0.820635 0.817665 0.575694 119.844 19.1418)" stroke="#F6F8FA"/>
<line y1="-0.5" x2="7.78463" y2="-0.5" transform="matrix(0.705493 -0.708717 0.705498 0.708712 135.988 14.0583)" stroke="#F6F8FA"/>
<line y1="-0.5" x2="7.77917" y2="-0.5" transform="matrix(0.81818 -0.574962 0.572194 0.820118 152.34 9.17017)" stroke="#F6F8FA"/>
<line y1="-0.5" x2="7.7756" y2="-0.5" transform="matrix(0.905926 -0.423435 0.421805 0.906686 168.793 4.00317)" stroke="#F6F8FA"/>
<line y1="-0.5" x2="7.81411" y2="-0.5" transform="matrix(-0.421805 -0.906686 0.905927 -0.423435 24.0742 46.0676)" stroke="#F6F8FA"/>
<line x1="39.5092" y1="41.9319" x2="37.4865" y2="34.3829" stroke="#F6F8FA"/>
<line y1="-0.5" x2="7.81411" y2="-0.5" transform="matrix(-0.0880492 -0.996116 0.996273 -0.0862577 55.9102 37.5374)" stroke="#F6F8FA"/>
<line y1="-0.5" x2="7.81056" y2="-0.5" transform="matrix(0.0854759 -0.99634 0.996046 0.0888421 58.4375 50.7659)" stroke="#F6F8FA"/>
<line y1="-0.5" x2="7.80511" y2="-0.5" transform="matrix(0.256623 -0.966512 0.965333 0.26102 74.3828 46.2419)" stroke="#F6F8FA"/>
<line y1="-0.5" x2="7.79843" y2="-0.5" transform="matrix(0.420273 -0.907398 0.905211 0.424963 90.4102 41.6938)" stroke="#F6F8FA"/>
<line y1="-0.5" x2="7.79131" y2="-0.5" transform="matrix(0.571454 -0.820634 0.817665 0.575694 106.484 36.8806)" stroke="#F6F8FA"/>
<line y1="-0.5" x2="7.78463" y2="-0.5" transform="matrix(0.705493 -0.708717 0.705498 0.708712 122.633 31.7959)" stroke="#F6F8FA"/>
<line y1="-0.5" x2="7.77917" y2="-0.5" transform="matrix(0.81818 -0.574962 0.572194 0.820118 138.984 26.9082)" stroke="#F6F8FA"/>
<line y1="-0.5" x2="7.7756" y2="-0.5" transform="matrix(0.905926 -0.423435 0.421805 0.906687 155.438 21.7407)" stroke="#F6F8FA"/>
<line x1="26.1498" y1="59.6707" x2="24.1271" y2="52.1216" stroke="#F6F8FA"/>
<line y1="-0.5" x2="7.81411" y2="-0.5" transform="matrix(-0.0880491 -0.996116 0.996273 -0.0862579 42.5547 55.2754)" stroke="#F6F8FA"/>
<line x1="181.575" y1="14.4974" x2="174.065" y2="16.5095" stroke="#F6F8FA"/>
<line y1="-0.5" x2="7.7756" y2="-0.5" transform="matrix(-0.996273 0.0862573 -0.0880497 -0.996116 198.445 10.2168)" stroke="#F6F8FA"/>
<line y1="-0.5" x2="7.81056" y2="-0.5" transform="matrix(0.0854757 -0.99634 0.996046 0.0888423 45.082 68.5046)" stroke="#F6F8FA"/>
<line y1="-0.5" x2="7.80511" y2="-0.5" transform="matrix(0.256623 -0.966512 0.965333 0.26102 61.0273 63.9792)" stroke="#F6F8FA"/>
<line y1="-0.5" x2="7.79844" y2="-0.5" transform="matrix(0.420271 -0.907398 0.90521 0.424964 77.0547 59.4319)" stroke="#F6F8FA"/>
<line y1="-0.5" x2="7.79132" y2="-0.5" transform="matrix(0.571453 -0.820635 0.817665 0.575694 93.1328 54.6187)" stroke="#F6F8FA"/>
<line y1="-0.5" x2="7.78463" y2="-0.5" transform="matrix(0.705493 -0.708717 0.705498 0.708712 109.273 49.5347)" stroke="#F6F8FA"/>
<line y1="-0.5" x2="7.77917" y2="-0.5" transform="matrix(0.81818 -0.574962 0.572194 0.820118 125.629 44.647)" stroke="#F6F8FA"/>
<line y1="-0.5" x2="7.77559" y2="-0.5" transform="matrix(0.905927 -0.423435 0.421805 0.906686 142.082 39.4795)" stroke="#F6F8FA"/>
<line y1="-0.5" x2="7.8141" y2="-0.5" transform="matrix(-0.088049 -0.996116 0.996273 -0.0862579 29.1953 73.0142)" stroke="#F6F8FA"/>
<line x1="168.219" y1="32.2349" x2="160.71" y2="34.2471" stroke="#F6F8FA"/>
<line y1="-0.5" x2="7.7756" y2="-0.5" transform="matrix(-0.996273 0.0862582 -0.0880488 -0.996116 185.09 27.9556)" stroke="#F6F8FA"/>
<line y1="-0.5" x2="7.77917" y2="-0.5" transform="matrix(-0.996046 -0.0888422 0.0854758 -0.99634 201.922 24.2039)" stroke="#F6F8FA"/>
<line y1="-0.5" x2="7.81056" y2="-0.5" transform="matrix(0.0854758 -0.99634 0.996046 0.0888422 31.7266 86.2427)" stroke="#F6F8FA"/>
<line y1="-0.5" x2="7.80512" y2="-0.5" transform="matrix(0.256622 -0.966512 0.965333 0.26102 47.668 81.718)" stroke="#F6F8FA"/>
<line y1="-0.5" x2="7.79843" y2="-0.5" transform="matrix(0.420272 -0.907398 0.90521 0.424964 63.6953 77.1699)" stroke="#F6F8FA"/>
<line y1="-0.5" x2="7.79131" y2="-0.5" transform="matrix(0.571454 -0.820634 0.817665 0.575694 79.7734 72.3567)" stroke="#F6F8FA"/>
<line y1="-0.5" x2="7.78463" y2="-0.5" transform="matrix(0.705493 -0.708717 0.705498 0.708712 95.918 67.272)" stroke="#F6F8FA"/>
<line y1="-0.5" x2="7.77916" y2="-0.5" transform="matrix(0.81818 -0.574963 0.572194 0.820118 112.273 62.3843)" stroke="#F6F8FA"/>
<line y1="-0.5" x2="7.7756" y2="-0.5" transform="matrix(0.905927 -0.423435 0.421806 0.906686 128.727 57.2175)" stroke="#F6F8FA"/>
<line y1="-0.5" x2="7.78462" y2="-0.5" transform="matrix(-0.965333 -0.26102 0.256622 -0.966512 205.172 37.9971)" stroke="#F6F8FA"/>
<line x1="154.864" y1="49.973" x2="147.354" y2="51.9851" stroke="#F6F8FA"/>
<line y1="-0.5" x2="7.7756" y2="-0.5" transform="matrix(-0.996273 0.0862582 -0.0880488 -0.996116 171.734 45.6936)" stroke="#F6F8FA"/>
<line y1="-0.5" x2="7.77915" y2="-0.5" transform="matrix(-0.996046 -0.0888428 0.0854751 -0.99634 188.562 41.9421)" stroke="#F6F8FA"/>
<line y1="-0.5" x2="7.80511" y2="-0.5" transform="matrix(0.256623 -0.966512 0.965333 0.26102 34.3125 99.4561)" stroke="#F6F8FA"/>
<line y1="-0.5" x2="7.79844" y2="-0.5" transform="matrix(0.420272 -0.907398 0.90521 0.424964 50.3398 94.9082)" stroke="#F6F8FA"/>
<line y1="-0.5" x2="7.79132" y2="-0.5" transform="matrix(0.571453 -0.820635 0.817665 0.575694 66.418 90.095)" stroke="#F6F8FA"/>
<line y1="-0.5" x2="7.78462" y2="-0.5" transform="matrix(0.705493 -0.708717 0.705497 0.708713 82.5586 85.0107)" stroke="#F6F8FA"/>
<line y1="-0.5" x2="7.77917" y2="-0.5" transform="matrix(0.81818 -0.574962 0.572194 0.820118 98.9141 80.123)" stroke="#F6F8FA"/>
<line y1="-0.5" x2="7.7756" y2="-0.5" transform="matrix(0.905927 -0.423435 0.421806 0.906686 115.367 74.9558)" stroke="#F6F8FA"/>
<line y1="-0.5" x2="7.78462" y2="-0.5" transform="matrix(-0.965333 -0.26102 0.256622 -0.966512 191.816 55.7358)" stroke="#F6F8FA"/>
<line y1="-0.5" x2="7.79132" y2="-0.5" transform="matrix(-0.90521 -0.424964 0.420272 -0.907398 208.34 52.0669)" stroke="#F6F8FA"/>
<line x1="141.504" y1="67.7112" x2="133.995" y2="69.7234" stroke="#F6F8FA"/>
<line y1="-0.5" x2="7.7756" y2="-0.5" transform="matrix(-0.996273 0.0862582 -0.0880488 -0.996116 158.375 63.4316)" stroke="#F6F8FA"/>
<line y1="-0.5" x2="7.77917" y2="-0.5" transform="matrix(-0.996046 -0.0888422 0.0854758 -0.99634 175.211 59.6802)" stroke="#F6F8FA"/>
<line y1="-0.5" x2="7.79843" y2="-0.5" transform="matrix(0.420272 -0.907398 0.90521 0.424964 36.9844 112.647)" stroke="#F6F8FA"/>
<line y1="-0.5" x2="7.79131" y2="-0.5" transform="matrix(0.571454 -0.820634 0.817665 0.575694 53.0586 107.833)" stroke="#F6F8FA"/>
<line y1="-0.5" x2="7.78463" y2="-0.5" transform="matrix(0.705492 -0.708717 0.705497 0.708713 69.207 102.749)" stroke="#F6F8FA"/>
<line y1="-0.5" x2="7.77916" y2="-0.5" transform="matrix(0.81818 -0.574963 0.572194 0.820118 85.5586 97.8611)" stroke="#F6F8FA"/>
<line y1="-0.5" x2="7.7756" y2="-0.5" transform="matrix(0.905927 -0.423435 0.421806 0.906686 102.012 92.6938)" stroke="#F6F8FA"/>
<line y1="-0.5" x2="7.78462" y2="-0.5" transform="matrix(-0.965333 -0.261021 0.256621 -0.966512 178.461 73.4739)" stroke="#F6F8FA"/>
<line y1="-0.5" x2="7.79131" y2="-0.5" transform="matrix(-0.90521 -0.424964 0.420272 -0.907398 194.984 69.8049)" stroke="#F6F8FA"/>
<line y1="-0.5" x2="7.79843" y2="-0.5" transform="matrix(-0.817666 -0.575693 0.571454 -0.820634 211.312 65.9358)" stroke="#F6F8FA"/>
<line x1="128.149" y1="85.4493" x2="120.639" y2="87.4614" stroke="#F6F8FA"/>
<line y1="-0.5" x2="7.7756" y2="-0.5" transform="matrix(-0.996273 0.0862582 -0.0880488 -0.996116 145.02 81.1699)" stroke="#F6F8FA"/>
<line y1="-0.5" x2="7.77917" y2="-0.5" transform="matrix(-0.996046 -0.0888422 0.0854758 -0.99634 161.855 77.4182)" stroke="#F6F8FA"/>
<line y1="-0.5" x2="7.79131" y2="-0.5" transform="matrix(0.571454 -0.820634 0.817666 0.575693 39.7031 125.571)" stroke="#F6F8FA"/>
<line y1="-0.5" x2="7.78463" y2="-0.5" transform="matrix(0.705493 -0.708717 0.705497 0.708712 55.8477 120.487)" stroke="#F6F8FA"/>
<line y1="-0.5" x2="7.77916" y2="-0.5" transform="matrix(0.81818 -0.574963 0.572194 0.820118 72.2031 115.599)" stroke="#F6F8FA"/>
<line y1="-0.5" x2="7.7756" y2="-0.5" transform="matrix(0.905927 -0.423435 0.421806 0.906686 88.6562 110.432)" stroke="#F6F8FA"/>
<line y1="-0.5" x2="7.78463" y2="-0.5" transform="matrix(-0.965333 -0.26102 0.256623 -0.966512 165.102 91.2122)" stroke="#F6F8FA"/>
<line y1="-0.5" x2="7.79131" y2="-0.5" transform="matrix(-0.905211 -0.424963 0.420273 -0.907398 181.629 87.543)" stroke="#F6F8FA"/>
<line y1="-0.5" x2="7.79845" y2="-0.5" transform="matrix(-0.817665 -0.575694 0.571453 -0.820635 197.953 83.6738)" stroke="#F6F8FA"/>
<line y1="-0.5" x2="7.80511" y2="-0.5" transform="matrix(-0.705497 -0.708713 0.705493 -0.708717 214.113 79.5977)" stroke="#F6F8FA"/>
<line x1="114.793" y1="103.188" x2="107.284" y2="105.2" stroke="#F6F8FA"/>
<line y1="-0.5" x2="7.7756" y2="-0.5" transform="matrix(-0.996273 0.0862582 -0.0880488 -0.996116 131.664 98.908)" stroke="#F6F8FA"/>
<line y1="-0.5" x2="7.77917" y2="-0.5" transform="matrix(-0.996046 -0.0888422 0.0854758 -0.99634 148.496 95.1562)" stroke="#F6F8FA"/>
<line y1="-0.5" x2="7.78463" y2="-0.5" transform="matrix(0.705493 -0.708717 0.705497 0.708712 42.4922 138.225)" stroke="#F6F8FA"/>
<line y1="-0.5" x2="7.77917" y2="-0.5" transform="matrix(0.81818 -0.574962 0.572194 0.820118 58.8477 133.337)" stroke="#F6F8FA"/>
<line y1="-0.5" x2="7.7756" y2="-0.5" transform="matrix(0.905926 -0.423436 0.421804 0.906687 75.3008 128.17)" stroke="#F6F8FA"/>
<line y1="-0.5" x2="7.78462" y2="-0.5" transform="matrix(-0.965333 -0.26102 0.256622 -0.966512 151.746 108.95)" stroke="#F6F8FA"/>
<line y1="-0.5" x2="7.79132" y2="-0.5" transform="matrix(-0.90521 -0.424964 0.420272 -0.907398 168.27 105.282)" stroke="#F6F8FA"/>
<line y1="-0.5" x2="7.79843" y2="-0.5" transform="matrix(-0.817666 -0.575693 0.571454 -0.820634 184.598 101.412)" stroke="#F6F8FA"/>
<line y1="-0.5" x2="7.80511" y2="-0.5" transform="matrix(-0.705497 -0.708713 0.705493 -0.708717 200.754 97.3357)" stroke="#F6F8FA"/>
<line y1="-0.5" x2="7.81056" y2="-0.5" transform="matrix(-0.572193 -0.820119 0.818179 -0.574963 216.824 93.2827)" stroke="#F6F8FA"/>
<line x1="101.438" y1="120.926" x2="93.9286" y2="122.938" stroke="#F6F8FA"/>
<line y1="-0.5" x2="7.7756" y2="-0.5" transform="matrix(-0.996273 0.0862563 -0.0880507 -0.996116 118.309 116.646)" stroke="#F6F8FA"/>
<line y1="-0.5" x2="7.77917" y2="-0.5" transform="matrix(-0.996046 -0.0888422 0.0854758 -0.99634 135.141 112.895)" stroke="#F6F8FA"/>
<line y1="-0.5" x2="7.77917" y2="-0.5" transform="matrix(0.81818 -0.574962 0.572194 0.820118 45.4883 151.075)" stroke="#F6F8FA"/>
<line y1="-0.5" x2="7.7756" y2="-0.5" transform="matrix(0.905927 -0.423435 0.421806 0.906686 61.9414 145.909)" stroke="#F6F8FA"/>
<line y1="-0.5" x2="7.78463" y2="-0.5" transform="matrix(-0.965333 -0.26102 0.256623 -0.966512 138.391 126.689)" stroke="#F6F8FA"/>
<line y1="-0.5" x2="7.79132" y2="-0.5" transform="matrix(-0.90521 -0.424964 0.420272 -0.907398 154.914 123.019)" stroke="#F6F8FA"/>
<line y1="-0.5" x2="7.79842" y2="-0.5" transform="matrix(-0.817665 -0.575694 0.571453 -0.820635 171.242 119.149)" stroke="#F6F8FA"/>
<line y1="-0.5" x2="7.80512" y2="-0.5" transform="matrix(-0.705496 -0.708713 0.705492 -0.708718 187.398 115.074)" stroke="#F6F8FA"/>
<line y1="-0.5" x2="7.81055" y2="-0.5" transform="matrix(-0.572194 -0.820118 0.818179 -0.574963 203.469 111.021)" stroke="#F6F8FA"/>
<line x1="88.0786" y1="138.664" x2="80.5692" y2="140.676" stroke="#F6F8FA"/>
<line y1="-0.5" x2="7.7756" y2="-0.5" transform="matrix(-0.996273 0.0862582 -0.0880488 -0.996116 104.949 134.385)" stroke="#F6F8FA"/>
<line y1="-0.5" x2="7.77917" y2="-0.5" transform="matrix(-0.996046 -0.0888422 0.0854758 -0.99634 121.781 130.633)" stroke="#F6F8FA"/>
<line y1="-0.5" x2="7.7756" y2="-0.5" transform="matrix(0.905927 -0.423435 0.421806 0.906686 48.5859 163.646)" stroke="#F6F8FA"/>
<line y1="-0.5" x2="7.78463" y2="-0.5" transform="matrix(-0.965333 -0.26102 0.256623 -0.966512 125.035 144.426)" stroke="#F6F8FA"/>
<line y1="-0.5" x2="7.79131" y2="-0.5" transform="matrix(-0.905211 -0.424963 0.420273 -0.907398 141.559 140.758)" stroke="#F6F8FA"/>
<line y1="-0.5" x2="7.79843" y2="-0.5" transform="matrix(-0.817665 -0.575694 0.571453 -0.820635 157.887 136.888)" stroke="#F6F8FA"/>
<line y1="-0.5" x2="7.80511" y2="-0.5" transform="matrix(-0.705498 -0.708712 0.705494 -0.708716 174.043 132.812)" stroke="#F6F8FA"/>
<line y1="-0.5" x2="7.81055" y2="-0.5" transform="matrix(-0.572194 -0.820118 0.818179 -0.574963 190.113 128.759)" stroke="#F6F8FA"/>
<line y1="-0.5" x2="7.81411" y2="-0.5" transform="matrix(-0.421806 -0.906686 0.905927 -0.423435 206.125 124.722)" stroke="#F6F8FA"/>
<line x1="74.7232" y1="156.402" x2="67.2137" y2="158.414" stroke="#F6F8FA"/>
<line y1="-0.5" x2="7.7756" y2="-0.5" transform="matrix(-0.996273 0.0862582 -0.0880488 -0.996116 91.5938 152.122)" stroke="#F6F8FA"/>
<line y1="-0.5" x2="7.77916" y2="-0.5" transform="matrix(-0.996046 -0.0888423 0.0854756 -0.99634 108.43 148.371)" stroke="#F6F8FA"/>
<line y1="-0.5" x2="7.78462" y2="-0.5" transform="matrix(-0.965333 -0.26102 0.256622 -0.966512 111.676 162.165)" stroke="#F6F8FA"/>
<line y1="-0.5" x2="7.79132" y2="-0.5" transform="matrix(-0.90521 -0.424964 0.420272 -0.907398 128.203 158.496)" stroke="#F6F8FA"/>
<line y1="-0.5" x2="7.79844" y2="-0.5" transform="matrix(-0.817665 -0.575695 0.571452 -0.820635 144.531 154.626)" stroke="#F6F8FA"/>
<line y1="-0.5" x2="7.80511" y2="-0.5" transform="matrix(-0.705497 -0.708713 0.705493 -0.708717 160.688 150.55)" stroke="#F6F8FA"/>
<line y1="-0.5" x2="7.81056" y2="-0.5" transform="matrix(-0.572194 -0.820118 0.81818 -0.574963 176.754 146.498)" stroke="#F6F8FA"/>
<line y1="-0.5" x2="7.81411" y2="-0.5" transform="matrix(-0.421806 -0.906686 0.905927 -0.423435 192.766 142.46)" stroke="#F6F8FA"/>
<line x1="208.201" y1="138.324" x2="206.178" y2="130.775" stroke="#F6F8FA"/>
<line x1="61.3677" y1="174.14" x2="53.8582" y2="176.153" stroke="#F6F8FA"/>
<line y1="-0.5" x2="7.7756" y2="-0.5" transform="matrix(-0.996273 0.0862582 -0.0880487 -0.996116 78.2383 169.861)" stroke="#F6F8FA"/>
<line y1="-0.5" x2="7.77917" y2="-0.5" transform="matrix(-0.996046 -0.0888422 0.0854758 -0.99634 95.0703 166.109)" stroke="#F6F8FA"/>
<line y1="-0.5" x2="7.79132" y2="-0.5" transform="matrix(-0.90521 -0.424964 0.420272 -0.907398 114.844 176.234)" stroke="#F6F8FA"/>
<line y1="-0.5" x2="7.79843" y2="-0.5" transform="matrix(-0.817665 -0.575694 0.571453 -0.820635 131.172 172.365)" stroke="#F6F8FA"/>
<line y1="-0.5" x2="7.80511" y2="-0.5" transform="matrix(-0.705497 -0.708713 0.705493 -0.708717 147.328 168.289)" stroke="#F6F8FA"/>
<line y1="-0.5" x2="7.81056" y2="-0.5" transform="matrix(-0.572194 -0.820118 0.81818 -0.574963 163.398 164.235)" stroke="#F6F8FA"/>
<line y1="-0.5" x2="7.81409" y2="-0.5" transform="matrix(-0.421805 -0.906687 0.905926 -0.423435 179.41 160.198)" stroke="#F6F8FA"/>
<line x1="194.845" y1="156.062" x2="192.822" y2="148.513" stroke="#F6F8FA"/>
<line y1="-0.5" x2="7.8141" y2="-0.5" transform="matrix(-0.0880485 -0.996116 0.996273 -0.0862585 211.246 151.668)" stroke="#F6F8FA"/>
<line y1="-0.5" x2="7.81055" y2="-0.5" transform="matrix(0.0854753 -0.99634 0.996046 0.0888427 213.777 164.896)" stroke="#F6F8FA"/>
<line y1="-0.5" x2="7.81411" y2="-0.5" transform="matrix(-0.421806 -0.906686 0.905927 -0.423435 166.051 177.937)" stroke="#F6F8FA"/>
<line x1="181.486" y1="173.801" x2="179.463" y2="166.252" stroke="#F6F8FA"/>
<line y1="-0.5" x2="7.81411" y2="-0.5" transform="matrix(-0.0880489 -0.996116 0.996273 -0.0862581 197.891 169.406)" stroke="#F6F8FA"/>
</g>
</svg>
